<svg xmlns="http://www.w3.org/2000/svg" viewBox="0 0 32 32" width="32" height="32">
  <!-- Background circle -->
  <circle cx="16" cy="16" r="15" fill="#8B4513" stroke="#DAA520" stroke-width="1"/>
  
  <!-- Saree drape representation -->
  <path d="M8 8 L24 8 L20 12 L12 12 L8 8 Z" fill="#DAA520" opacity="0.8"/>
  <path d="M12 12 L20 12 L18 16 L14 16 L12 12 Z" fill="#DAA520" opacity="0.6"/>
  <path d="M14 16 L18 16 L16 20 L14 20 L14 16 Z" fill="#DAA520" opacity="0.4"/>
  
  <!-- Pallu (end piece) -->
  <path d="M16 20 L20 20 L18 24 L16 24 L16 20 Z" fill="#DAA520" opacity="0.8"/>
  
  <!-- Decorative border -->
  <path d="M6 6 L26 6 L26 26 L6 26 Z" fill="none" stroke="#DAA520" stroke-width="0.5" opacity="0.7"/>
  
  <!-- Small decorative dots -->
  <circle cx="12" cy="10" r="0.5" fill="#8B4513"/>
  <circle cx="20" cy="10" r="0.5" fill="#8B4513"/>
  <circle cx="14" cy="14" r="0.5" fill="#8B4513"/>
  <circle cx="18" cy="14" r="0.5" fill="#8B4513"/>
  <circle cx="16" cy="18" r="0.5" fill="#8B4513"/>
  <circle cx="17" cy="22" r="0.5" fill="#8B4513"/>
</svg>
